<svg xmlns="http://www.w3.org/2000/svg" viewBox="0 0 5000 5000"><defs><style>.cls-1,.cls-9{fill:#fff;}.cls-2{fill:#f6f7ff;}.cls-3{fill:#4e2da3;}.cls-4{fill:#6d6dbf;}.cls-5{fill:#e4e7ff;}.cls-6{fill:#cecdff;}.cls-7{fill:#a9f;}.cls-8{fill:#f3f5ff;}.cls-9{stroke:#fff;stroke-miterlimit:10;}</style></defs><g id="Background"><rect class="cls-1" width="5000" height="5000"/></g><g id="Object"><path class="cls-2" d="M847.81,3116.82c-341.3-558-464.32-1776,654-1970,836-145,1277,534,1459,534,408,0,435-490,950-314,880.46,300.9,509,1642,219,1987C3263.43,4384.52,1436.81,4079.82,847.81,3116.82Z"/><path class="cls-3" d="M2436.62,4141.9l.38-20c13.14.25,26.45.37,39.57.37l10.22,0,.09,20-10.31,0C2463.33,4142.27,2449.89,4142.15,2436.62,4141.9Zm100-20.49c16.57-.47,33.33-1.15,49.8-2l1,20c-16.63.88-33.55,1.57-50.28,2.05Zm-200.41,16.27,1.3-20c16.51,1.08,33.24,2,49.72,2.67l-.84,20C2369.75,4139.67,2352.87,4138.77,2336.21,4137.68Zm299.95-21.52c16.53-1.28,33.24-2.78,49.66-4.45l2,19.89c-16.58,1.7-33.45,3.21-50.15,4.5Zm-400,12.65,2.22-19.87c16.4,1.83,33.07,3.5,49.54,5l-1.77,19.92C2269.48,4132.35,2252.66,4130.67,2236.11,4128.81ZM2735.34,4106c16.46-2.1,33.07-4.44,49.37-7l3,19.77c-16.46,2.53-33.24,4.89-49.87,7Zm-598.79,9.33,3.13-19.76c16.3,2.59,32.87,5,49.25,7.24l-2.68,19.82C2169.72,4120.42,2153,4118,2136.55,4115.35Zm697.33-24.51c16.35-3,32.81-6.16,48.94-9.53l4.08,19.58c-16.3,3.4-32.94,6.64-49.46,9.63Zm-796.16,6.45,4-19.58c16.17,3.34,32.6,6.54,48.85,9.51l-3.59,19.67C2070.63,4103.9,2054,4100.67,2037.72,4097.29Zm893.63-26.8c16.12-3.83,32.34-7.92,48.21-12.16l5.17,19.32c-16.06,4.29-32.46,8.43-48.76,12.3Zm-991.49,4.16,5-19.38c15.94,4.09,32.2,8.05,48.34,11.79l-4.51,19.49C1972.36,4082.77,1955.94,4078.77,1939.86,4074.65Zm1087.53-29.85c15.9-4.75,31.85-9.77,47.41-14.92l6.29,19c-15.75,5.22-31.89,10.3-48,15.1Zm-1184.21,2.58,5.89-19.12c15.72,4.85,31.77,9.59,47.71,14.08l-5.43,19.25C1875.26,4057.05,1859.05,4052.27,1843.18,4047.38Zm1278.55-33.84c15.57-5.69,31.18-11.68,46.39-17.79l7.46,18.56c-15.41,6.19-31.22,12.25-47,18ZM1748,4015.44l6.82-18.8c15.47,5.62,31.26,11.13,47,16.39l-6.36,19C1779.52,4026.68,1763.56,4021.11,1748,4015.44Zm-93.52-36.66,7.77-18.43c15.12,6.38,30.62,12.68,46.06,18.74l-7.31,18.62C1685.36,3991.59,1669.7,3985.22,1654.43,3978.78Zm1559.48-2.29c15.16-6.67,30.34-13.65,45.11-20.75l8.67,18c-15,7.2-30.36,14.28-45.73,21Zm-1651-39.19,8.74-18c14.76,7.17,29.9,14.28,45,21.12l-8.26,18.21C1593.15,3951.73,1577.85,3944.55,1562.93,3937.3Zm1740.46-3.84c14.69-7.7,29.37-15.73,43.64-23.88l9.91,17.37c-14.47,8.26-29.37,16.41-44.27,24.22Zm-1829.6-42.52,9.71-17.48c14.35,8,29.07,15.89,43.76,23.53l-9.22,17.74C1503.18,3907,1488.29,3899,1473.79,3890.94Zm1916-6.81c14.08-8.74,28.11-17.84,41.7-27l11.2,16.57c-13.8,9.33-28.05,18.56-42.35,27.44ZM1387.38,3839.6l10.72-16.88c13.83,8.77,28.07,17.51,42.33,26l-10.21,17.2C1415.79,3857.33,1401.38,3848.48,1387.38,3839.6Zm2084.68-11.1c13.34-9.81,26.59-20,39.4-30.2l12.48,15.62c-13,10.4-26.48,20.73-40,30.69Zm-2167.89-45.37,11.76-16.18c13.27,9.65,27,19.25,40.64,28.54L1345.34,3812C1331.47,3802.63,1317.62,3792.9,1304.17,3783.13Zm2245.38-16.62c12.46-10.84,24.8-22.06,36.68-33.34l13.77,14.5c-12.09,11.48-24.64,22.89-37.32,33.93Zm-2324.71-45.26,12.84-15.34c12.59,10.54,25.58,21,38.6,31.19l-12.3,15.77C1250.78,3742.57,1237.61,3731.93,1224.84,3721.25Zm2396.57-23c11.45-11.86,22.74-24.1,33.57-36.38l15,13.23c-11,12.5-22.52,25-34.18,37ZM1150,3654l13.89-14.38c11.81,11.4,24,22.78,36.3,33.82l-13.37,14.87C1174.37,3677.09,1162,3665.54,1150,3654Zm2536.84-29.91c10.3-12.81,20.42-26,30.07-39.23l16.15,11.79c-9.83,13.47-20.14,26.92-30.63,40Zm-2606.63-42.65,14.92-13.32c10.95,12.26,22.29,24.5,33.72,36.38l-14.41,13.87C1102.84,3606.28,1091.32,3593.85,1080.21,3581.41Zm2665-37.23c9-13.7,17.9-27.79,26.29-41.89l17.18,10.23c-8.55,14.37-17.56,28.73-26.79,42.68ZM1016,3503.83l15.88-12.16c10,13,20.38,26.11,30.89,38.81l-15.41,12.75C1036.72,3530.33,1026.17,3517.08,1016,3503.83Zm2779.52-44.68c7.29-14.07,14.52-29.06,21.49-44.54l18.23,8.21c-7.12,15.81-14.51,31.13-22,45.53ZM957.89,3421.59l16.76-10.92c9,13.8,18.36,27.61,27.86,41l-16.33,11.54C976.54,3449.62,967,3435.6,957.89,3421.59Zm-51.73-86.42,17.53-9.62c7.94,14.46,16.24,28.94,24.68,43l-17.16,10.27C922.64,3364.55,914.21,3349.85,906.16,3335.17ZM3836.31,3369c5.92-14.93,11.76-30.57,17.37-46.48l18.86,6.64c-5.69,16.16-11.62,32-17.64,47.21ZM861,3245.12l18.2-8.3c6.85,15,14,30.1,21.41,44.78l-17.89,9C875.3,3275.65,868,3260.36,861,3245.12Zm3008.32,30.23c4.86-15.46,9.63-31.49,14.17-47.65l19.26,5.42c-4.6,16.35-9.43,32.57-14.35,48.23ZM822.63,3152l18.74-7c5.76,15.51,11.86,31.06,18.12,46.23L841,3198.91C834.65,3183.52,828.47,3167.74,822.63,3152Zm3073.71,27.63c4-15.81,7.87-32.1,11.54-48.4l19.51,4.39c-3.71,16.47-7.63,32.92-11.66,48.9ZM790.85,3056.45l19.18-5.66c4.69,15.88,9.69,31.83,14.87,47.4l-19,6.31C800.67,3088.72,795.6,3072.55,790.85,3056.45Zm3127.39,26.1c3.22-16.06,6.33-32.52,9.25-48.93l19.69,3.5c-2.94,16.55-6.08,33.16-9.33,49.36ZM765.5,2959l19.51-4.42c3.68,16.24,7.63,32.49,11.74,48.31l-19.36,5C773.23,2991.9,769.23,2975.44,765.5,2959Zm3170.17,25.5c2.53-16.25,4.93-32.83,7.15-49.29l19.82,2.67c-2.23,16.59-4.66,33.31-7.21,49.69ZM746.09,2860.25l19.72-3.33c2.87,17,5.79,33,8.92,49l-19.63,3.85C751.94,2893.6,749,2877.41,746.09,2860.25ZM3949,2885.77c1.87-16.36,3.61-33,5.17-49.49l19.91,1.88c-1.57,16.61-3.33,33.39-5.21,49.89Zm-3213.7-95c-1.65-11.21-3.08-20.89-4.46-29.58l19.75-3.14c1.4,8.8,2.83,18.53,4.5,29.8q1.38,9.39,2.94,19.81l-19.78,3C737.18,2803.67,736.21,2797,735.28,2790.77Zm3223.07-4.1c1.24-16.47,2.33-33.19,3.25-49.69l20,1.11c-.93,16.63-2,33.47-3.27,50.08Zm5.52-99.44c.59-16.58,1-33.33,1.29-49.8l20,.32c-.26,16.6-.7,33.49-1.3,50.19Zm.86-149.42,20-.5c.42,16.57.67,33.47.74,50.22l-20,.09C3965.39,2571,3965.14,2554.25,3964.73,2537.81Zm-4.68-99.49,20-1.38c1.14,16.5,2.12,33.38,2.91,50.17l-20,.93C3962.16,2471.41,3961.19,2454.68,3960.05,2438.32Zm-9.27-99.1,19.86-2.36c1.94,16.39,3.73,33.21,5.29,50l-19.91,1.86C3954.47,2372.09,3952.7,2355.45,3950.78,2339.22Zm-14.42-98.39,19.7-3.46c2.85,16.22,5.54,32.93,8,49.65l-19.79,2.89C3941.84,2273.38,3939.18,2256.86,3936.36,2240.83Zm-20.29-97.24,19.43-4.74c3.9,16,7.63,32.5,11.09,49.1L3927,2192C3923.6,2175.65,3919.92,2159.35,3916.07,2143.59Zm-27.21-95.38,19-6.27c5.15,15.6,10.13,31.81,14.79,48.2l-19.24,5.47C3898.82,2079.49,3893.93,2063.55,3888.86,2048.21Zm-27.39-73.53c-2.64-6.32-5.37-12.69-8.1-18.92l18.33-8c2.77,6.34,5.53,12.8,8.22,19.22,3.74,8.94,7.44,18.17,11,27.44l-18.68,7.16C3868.76,1992.48,3865.14,1983.44,3861.47,1974.68Zm-51.27-108.23,17.66-9.38c7.85,14.75,15.51,29.87,22.79,44.92l-18,8.7C3825.47,1895.87,3817.93,1881,3810.2,1866.45Zm-49.84-85.78,16.9-10.7c8.94,14.14,17.74,28.63,26.13,43.07l-17.29,10C3777.83,1808.86,3769.17,1794.59,3760.36,1780.67Zm-56.18-81.8,16.06-11.93c10,13.45,19.84,27.23,29.28,41L3733,1739.25C3723.73,1725.7,3714,1712.12,3704.18,1698.87Zm-62.08-77.44,15.14-13.07c11,12.68,21.78,25.71,32.21,38.71l-15.6,12.52C3663.57,1646.77,3652.89,1633.93,3642.1,1621.43Zm-67.52-72.8,14.17-14.11c11.82,11.87,23.56,24.09,34.9,36.31l-14.66,13.6C3597.81,1572.38,3586.23,1560.34,3574.58,1548.63Zm-72.47-67.94,13.18-15c12.6,11,25.16,22.41,37.32,33.81L3538.93,1514C3526.94,1502.8,3514.55,1491.58,3502.11,1480.69Zm-76.91-62.9,12.14-15.89c13.31,10.16,26.6,20.67,39.5,31.22l-12.66,15.48C3451.45,1438.19,3438.33,1427.82,3425.2,1417.79Zm-80.92-57.72,11.09-16.65c14,9.3,27.91,18.91,41.46,28.57l-11.62,16.29C3371.84,1378.74,3358.07,1369.24,3344.28,1360.07Zm-82.67-51.64-1.77-1,10.16-17.23,1.79,1c11.39,6.74,25.2,15,41.24,25l-10.57,17C3286.59,1323.27,3272.9,1315.11,3261.61,1308.43ZM1945.9,1297.06a283.15,283.15,0,0,1,35.31-37.84l13.4,14.84a262.58,262.58,0,0,0-32.81,35.14Zm1226.81-37.36,9-17.85c14.86,7.52,29.84,15.41,44.53,23.45l-9.6,17.54C3202.16,1274.9,3187.37,1267.12,3172.71,1259.7Zm-1151.3-32.23c13.32-9.29,27.84-18.39,43.15-27l9.84,17.41c-14.76,8.35-28.74,17.11-41.55,26.05Zm1061.24-9.62,7.82-18.41c15.32,6.5,30.8,13.38,46,20.44L3128,1238C3113,1231.05,3097.77,1224.27,3082.65,1217.85ZM2990,1182.22l6.53-18.9c15.75,5.43,31.66,11.24,47.29,17.25l-7.18,18.67C3021.21,1193.31,3005.52,1187.58,2990,1182.22Zm-880.28-5c14.88-7,30.54-13.68,46.56-19.94l7.28,18.62c-15.61,6.11-30.87,12.65-45.36,19.43Zm785.36-24,5.17-19.32c16.11,4.31,32.4,9,48.4,13.88l-5.85,19.12C2927,1162,2910.94,1157.42,2895.06,1153.17Zm-691.18-13c15.72-5.13,32-10,48.43-14.39l5.2,19.31c-16.08,4.33-32,9.07-47.43,14.09Zm594.44-9.21,3.75-19.64c16.38,3.12,33,6.61,49.29,10.35l-4.47,19.49C2830.8,1137.53,2814.46,1134.09,2798.32,1131Zm-497-17.1c16.22-3.53,32.89-6.75,49.55-9.58l3.35,19.72c-16.36,2.77-32.72,5.94-48.64,9.4Zm398.85,2.12,2.28-19.87c16.57,1.9,33.37,4.14,49.93,6.68l-3,19.77C2733.09,1120.11,2716.55,1117.9,2700.22,1116ZM2400.82,1097c16.51-2.06,33.38-3.82,50.15-5.2l1.65,19.93c-16.49,1.36-33.09,3.09-49.32,5.12Zm200.48,11.51.75-20c16.67.62,33.59,1.59,50.3,2.87l-1.52,19.94C2634.37,1110.05,2617.71,1109.1,2601.3,1108.48Zm-100-19.82c16.64-.69,33.6-1.06,50.38-1.08l0,20c-16.52,0-33.2.38-49.59,1.06Z"/><path class="cls-4" d="M958.87,1667.45c34.74-42.91,357.34-427.64,887.11-415.83,489,10.9,963.27,355.42,1002.58,688.88,33.37,283.05-260.51,440.18-156.43,620.31,97.93,169.49,381.31,70.49,633.65,284.93,171.66,145.87,283.65,398.28,213.39,606.1-99,292.78-520.74,381.6-671.89,413.44-536.08,112.91-1279-36.2-1730.62-548.81C741.68,2868.16,572.22,2144.86,958.87,1667.45Z"/><polygon class="cls-5" points="3825.8 857.73 3821.06 929.07 3739.97 923.68 3738.07 952.15 3819.16 957.54 3814.42 1028.88 3846.78 1031.04 3851.53 959.69 3932.62 965.09 3934.51 936.61 3853.42 931.22 3858.16 859.88 3825.8 857.73"/><path class="cls-6" d="M4276.72,1160.93a123.75,123.75,0,1,0,34.77,171.52A123.75,123.75,0,0,0,4276.72,1160.93Zm-112.13,169.16a79.2,79.2,0,1,1,109.77-22.26A79.21,79.21,0,0,1,4164.59,1330.09Z"/><polygon class="cls-3" points="1112.98 3171.9 1112.98 3262.73 1031.71 3262.73 1031.71 3298.98 1112.98 3298.98 1112.98 3389.82 1145.41 3389.82 1145.41 3298.98 1226.68 3298.98 1226.68 3262.73 1145.41 3262.73 1145.41 3171.9 1112.98 3171.9"/><circle class="cls-3" cx="880.73" cy="3584.5" r="52" transform="translate(-2775.56 3078.65) rotate(-68.32)"/><ellipse class="cls-5" cx="594.91" cy="1559.26" rx="58.74" ry="58.7" transform="translate(-974.93 2125.68) rotate(-88.96)"/><circle class="cls-3" cx="1079.7" cy="1769.62" r="52" transform="translate(-660.55 643.19) rotate(-25.7)"/><polygon class="cls-6" points="915.58 1343.52 1001.11 1331.09 1013.54 1416.63 1047.67 1411.67 1035.24 1326.13 1120.78 1313.7 1115.81 1279.57 1030.28 1292 1017.85 1206.47 983.72 1211.43 996.15 1296.96 910.62 1309.39 915.58 1343.52"/><path class="cls-6" d="M600.23,3327.17a75.86,75.86,0,1,0,41.32-99A75.85,75.85,0,0,0,600.23,3327.17Zm115.07-47.31a48.55,48.55,0,1,1-63.37-26.44A48.55,48.55,0,0,1,715.3,3279.86Z"/><path class="cls-6" d="M2503.63,2326.91a112.19,112.19,0,0,1-112.17-111.28L2387,1668.09A112.19,112.19,0,0,1,2498.25,1555h.94a112.19,112.19,0,0,1,112.17,111.28l4.49,547.54a112.19,112.19,0,0,1-111.28,113.11Z"/><path class="cls-7" d="M2389.21,1840V1974.6l224.4,4.49V1833.23s-33.75,57.66-110,53.85C2413.89,1882.6,2389.21,1840,2389.21,1840Z"/><path class="cls-6" d="M3261.59,3120.15c-76.73-112.05-102.18-186.55-118-245.84-24.58-121.28-37.83-253.64-59.82-454h-.21c-40.31-333.58-311.37-500.44-582.43-500.46S1959,2086.75,1918.7,2420.33h-.21c-22,200.34-35.24,332.7-59.82,454-15.82,59.29-41.27,133.79-118,245.84-103.25,150.78-157.33,167.17-157.33,237.65,0,173.14,480.06,257.6,917.8,262.15,437.73-4.55,917.8-89,917.8-262.15C3418.93,3287.32,3364.85,3270.93,3261.59,3120.15Z"/><ellipse class="cls-3" cx="2500.31" cy="3379.68" rx="750.63" ry="164.47"/><path class="cls-7" d="M2666.66,3292.24a167.17,167.17,0,0,1-334.34,0C2332.32,3199.91,2666.66,3199.91,2666.66,3292.24Z"/><path class="cls-8" d="M2549,3413.23a31.91,31.91,0,0,1-16.4,16.29c-37.8,15.66-74.51,14.21-106.17-4.18-35.66-20.73-62.46-62.79-69.93-109.76-2.41-15.16,7-31.15,21.06-35.73s27.38,4,29.79,19.15c5,31.71,23.58,61.07,47.23,74.81,19.58,11.38,41.59,12.14,65.42,2.27,13.82-5.73,27.84,1.6,31.32,16.36A32.39,32.39,0,0,1,2549,3413.23Z"/><path class="cls-1" d="M2461.16,3410c-2.64,5.74-8.25,9.58-14,9-28.57-2.62-49.9-28.93-60.07-44.39-15.21-23.09-24.3-49.42-23.74-68.71.23-7.88,6.19-14.85,13.31-15.57s12.71,5.09,12.48,13c-.75,25.49,30.57,84.13,63.26,87.14,7,.64,11.45,7.55,10,15.44A17.26,17.26,0,0,1,2461.16,3410Z"/><path class="cls-8" d="M2022,2561.28c-24.84,0-47.73-13.28-55-33.73-15.48-43.3-13.06-196.5,98.41-349.91,111.06-152.85,295.07-196.57,348.82-206.34,30.92-5.61,61.57,10.3,68.45,35.54s-12.61,50.26-43.54,55.88c-42.38,7.69-191.6,39.29-275.06,162.69-82.44,121.9-84.65,207.3-86.94,275.92-.88,26.34-8.59,50.82-39,58.06A69.45,69.45,0,0,1,2022,2561.28Z"/><path class="cls-1" d="M2118.57,2205.13a28.73,28.73,0,0,1-13-3.06c-11.5-5.88-15-18.26-7.79-27.66,108.55-141.52,282.6-179.2,333.36-187.38,13.31-2.15,26.25,4.93,28.88,15.8s-6,21.43-19.36,23.58c-45.86,7.38-203.13,41.43-301.2,169.3C2134.77,2201.79,2126.76,2205.13,2118.57,2205.13Z"/><path class="cls-8" d="M3140.34,3113.6a40.92,40.92,0,0,1-32.73-16.29c-36.33-48.12-76.32-110.14-97.37-205.31-16.58-74.93-23.13-128.57-30.47-249.57a41,41,0,0,1,81.8-5c7,115.95,13.2,166.86,28.68,236.84,17.61,79.59,50.18,130.49,82.76,173.63a41,41,0,0,1-32.67,65.67Z"/><path class="cls-1" d="M3046.87,2830.06a16.39,16.39,0,0,1-16.14-13.7c-4.75-28.49-10.3-57.51-13.25-86.24-3.39-32.94-4-66.42-5-99.51a16.39,16.39,0,0,1,32.77-1c1,32.3,1.53,65,4.84,97.16,2.88,28.05,8.33,56.38,13,84.21a16.38,16.38,0,0,1-13.47,18.86A16.72,16.72,0,0,1,3046.87,2830.06Z"/><circle class="cls-8" cx="2474.48" cy="1640.24" r="65.08"/><circle class="cls-9" cx="2454.74" cy="1622.29" r="28.27" transform="translate(311.86 3638.63) rotate(-76.72)"/><circle class="cls-6" cx="4243.61" cy="3150.1" r="259.81" transform="translate(-984.53 3923.32) rotate(-45)"/><path class="cls-7" d="M4192.9,3312q-21.81-6.09-32.53-22.8t-5.85-34.15q5-17.91,22.63-25.94t39.43-1.94q21.81,6.09,32.21,22t5.4,33.76q-4.86,17.45-22.18,26.32T4192.9,3312Zm-.12-125.85,44.43-219.24,96.05,26.82-76.1,210.4Z"/><path class="cls-1" d="M4198.54,3313.27q-19.35-5.4-28.54-21.38t-4.43-33a39.71,39.71,0,0,1,20.83-25.71q15.94-8.21,35.29-2.81t28.27,20.56q8.91,15.15,4,32.65a42.26,42.26,0,0,1-20.44,26.07Q4217.88,3318.67,4198.54,3313.27Zm3.39-124.17,44.83-213.87L4332,2999l-72.92,206Z"/><circle class="cls-6" cx="756.34" cy="2490.7" r="259.81" transform="translate(-1539.66 1264.32) rotate(-45)"/><path class="cls-7" d="M774.75,2641.37a35,35,0,0,1-19.1-12.65,558,558,0,0,0-175.9-150.49,24.06,24.06,0,0,1-9.71-32.74,24.37,24.37,0,0,1,33-9.44A607,607,0,0,1,774.1,2574.71,869.5,869.5,0,0,1,984,2133.33a24.49,24.49,0,0,1,34.33-2.07,24,24,0,0,1,2.27,34,821.92,821.92,0,0,0-202.67,447,34.23,34.23,0,0,1-25.47,29A35,35,0,0,1,774.75,2641.37Z"/><path class="cls-1" d="M783.21,2636.09a34.33,34.33,0,0,1-18.86-12.59,549.26,549.26,0,0,0-173.67-149.92,24.07,24.07,0,1,1,23.16-42.21,597.38,597.38,0,0,1,168.91,138.11,878.06,878.06,0,0,1,208.89-441.64,24.08,24.08,0,0,1,36.14,31.82A830.1,830.1,0,0,0,826,2606.93a34.54,34.54,0,0,1-42.81,29.16Z"/><path class="cls-1" d="M3519.77,1620.5a244.56,244.56,0,1,0-117.13-146A243,243,0,0,0,3519.77,1620.5Z"/><path class="cls-6" d="M3748,1204.76a228.83,228.83,0,1,1-87-27.21A228.19,228.19,0,0,1,3748,1204.76Zm14.32-26.09c-125.62-69-283.34-23-352.29,102.59s-23,283.34,102.59,352.29,283.34,23,352.29-102.59,23-283.34-102.59-352.29Z"/><path class="cls-6" d="M3686.24,1581.65l9.18,31.5a3.05,3.05,0,1,0,5.86-1.71l-9.18-31.5a3.05,3.05,0,1,0-5.86,1.71Z"/><path class="cls-6" d="M3574.44,1197.73l9.17,31.51a3.06,3.06,0,1,0,5.87-1.71l-9.18-31.5a3.05,3.05,0,0,0-5.86,1.7Z"/><path class="cls-6" d="M3462.51,1458.83,3431,1468a3.05,3.05,0,1,1-1.71-5.86l31.5-9.18a3.05,3.05,0,1,1,1.71,5.86Z"/><path class="cls-6" d="M3846.42,1347l-31.5,9.17a3.05,3.05,0,1,1-1.71-5.86l31.5-9.17a3.05,3.05,0,1,1,1.71,5.86Z"/><path class="cls-6" d="M3729.63,1531.57a3.05,3.05,0,0,0,3.91-4.51l-92.39-122.91,54.5-99.29a3,3,0,0,0-5.35-2.93l-56.4,102.73,94.76,126.07A3,3,0,0,0,3729.63,1531.57Z"/><path class="cls-6" d="M3715.26,1222.69a13.85,13.85,0,1,0,18.81-5.47A13.86,13.86,0,0,0,3715.26,1222.69Z"/><path class="cls-6" d="M3627.61,1396.05a13.85,13.85,0,1,0,18.81-5.48A13.85,13.85,0,0,0,3627.61,1396.05Z"/><path class="cls-6" d="M3536.17,1573.15a13.85,13.85,0,1,0,18.81-5.47A13.85,13.85,0,0,0,3536.17,1573.15Z"/><circle class="cls-6" cx="3813.09" cy="1494.13" r="13.85" transform="translate(589.36 4019.93) rotate(-59.48)"/><path class="cls-6" d="M3469.3,1302.9a13.85,13.85,0,1,0,5.47,18.81A13.85,13.85,0,0,0,3469.3,1302.9Z"/></g></svg>